,
Brought to you by  http://www.scenetime.com/signup.php
 
 Hottest scene tracker on the net !!!   
 
No fake torrents from scenebalance 
shame on those who comment fake before downloading my torrents

    seed back for speed


 



...................................NFO:.................................................Kung.Fu.Panda.2.2011.TS.XViD-SCR0N
   General
      Complete name : Kung.Fu.Panda.2.2011.TS.XViD-SCR0N.avi
      Format : AVI
      Format/Info : Audio Video Interleave
      File size : 711 MiB
      Duration : 1h 20mn
      Overall bit rate : 1 227 Kbps
   Video #0
      ID : 0
      Format : MPEG-4 Visual
      Format profile : Simple@L1
      Format settings, BVOP : No
      Format settings, QPel : No
      Format settings, GMC : No warppoints
      Format settings, Matrix : Default (H.263)
      Codec ID : XVID
      Codec ID/Hint : XviD
      Duration : 1h 20mn
      Bit rate : 900 Kbps
      Width : 672 pixels
      Height : 352 pixels
      Display aspect ratio : 1.909
      Frame rate : 25.000 fps
      Resolution : 24 bits
      Colorimetry : 4:2:0
      Scan type : Progressive
      Bits/(Pixel*Frame) : 0.152
      Stream size : 521 MiB (73%)
      Writing library : Lavc51.42.0
   Audio #1
      ID : 1
      Format : MPEG Audio
      Format version : Version 1
      Format profile : Layer 3
      Codec ID : 55
      Codec ID/Hint : MP3
      Duration : 1h 20mn
      Bit rate mode : Constant
      Bit rate : 320 Kbps
      Channel(s) : 2 channels
      Sampling rate : 48.0 KHz
      Resolution : 16 bits
      Stream size : 185 MiB (26%)
      Alignment : Split accross interleaves
      Interleave, duration : 1000 ms (25.00 video frames)

Thanks to all p2p groups...


[IMG]http://img600.imageshack.us/img600/3769/kfp24.jpg[/IMG]
[img]http://img821.imageshack.us/img821/1023/kfp21.jpg[/img]
[img]http://img194.imageshack.us/img194/2453/kfp22.jpg[/img]
[img]http://img26.imageshack.us/img26/2396/kfp23.jpg[/img]

[img]http://img546.imageshack.us/img546/6214/screensr.jpg[/img]